<svg xmlns="http://www.w3.org/2000/svg" version="1.1" viewBox="-5.0 -10.0 110.0 135.0" fill="#db0042">
    <path
        d="m60.543 55.641c-2.0273 2.8086-5.2852 3.9141-7.2773 2.4766s-1.9609-4.8789 0.066406-7.6875c2.0273-2.8086 5.2852-3.9141 7.2773-2.4766 1.9883 1.4414 1.9609 4.8828-0.066406 7.6875zm21.785-14.25c-1.9375-1.4141-5.1484-0.3125-7.1758 2.457-2.0234 2.7734-2.0977 6.168-0.16016 7.582 1.9375 1.4141 5.1484 0.3125 7.1758-2.457 2.0273-2.7734 2.0977-6.168 0.16016-7.582zm-1.0078 22.777c-1.8828-1.2891-4.9492-0.085938-6.8516 2.6875-1.8984 2.7734-1.9102 6.0703-0.027344 7.3594 1.8828 1.2891 4.9492 0.085937 6.8516-2.6875 1.8984-2.7734 1.9102-6.0703 0.027343-7.3594zm-21.188 7.1289c-1.9922-1.4375-5.25-0.33203-7.2773 2.4766-2.0273 2.8086-2.0586 6.25-0.066407 7.6875 1.9922 1.4375 5.25 0.33203 7.2773-2.4766 2.0312-2.8086 2.0586-6.25 0.066406-7.6875zm-40.848-26.961c1.1641-0.36328 1.418-2.8711 0.5625-5.6055-0.85547-2.7305-2.4883-4.6484-3.6562-4.2852-1.1641 0.36328-1.418 2.8711-0.5625 5.6016 0.85547 2.7383 2.4922 4.6562 3.6562 4.2891zm9.4375 7.9141c1.2344-0.38672 1.4766-3.1367 0.53906-6.1406s-2.7031-5.125-3.9375-4.7383c-1.2344 0.38672-1.4766 3.1367-0.53906 6.1406 0.94141 3.0039 2.7031 5.125 3.9375 4.7383zm-8.7266 6.2539c1.1641-0.36328 1.3672-3.0312 0.45312-5.957-0.91406-2.9258-2.6016-5-3.7656-4.6367-1.1641 0.36328-1.3672 3.0312-0.45312 5.957 0.91406 2.9219 2.5977 5 3.7656 4.6367zm9.1641 8.1875c1.2344-0.38672 1.4766-3.1367 0.53906-6.1406-0.9375-3.0039-2.7031-5.125-3.9375-4.7383s-1.4766 3.1367-0.53906 6.1406c0.9375 3 2.7031 5.1211 3.9375 4.7383zm-11.938-4.6875c-1.1641 0.36328-1.3672 3.0312-0.45312 5.957 0.91406 2.9258 2.6016 5 3.7656 4.6367 1.1641-0.36328 1.3672-3.0312 0.45312-5.957-0.91406-2.9219-2.6016-5-3.7656-4.6367zm8.918 7.9023c-1.2344 0.38672-1.4766 3.1367-0.53906 6.1406s2.7031 5.125 3.9375 4.7383c1.2344-0.38672 1.4766-3.1367 0.53906-6.1406-0.9375-3.0039-2.7031-5.125-3.9375-4.7383zm23.926-55.621c-7.8984 0.17969-14.246 2.8711-14.176 6.0156s6.5312 5.5469 14.43 5.3711c7.8984-0.17969 14.246-2.8711 14.176-6.0156-0.070313-3.1445-6.5312-5.5508-14.43-5.3711zm41.285 20.934-0.42578 31.609c-0.28906 3.9766-1.8086 7.4023-4.5234 10.203-1.6992 1.7539-3.8984 3.1641-6.5391 4.1953l-24.836 9.6875c-0.62891 0.24609-1.1953 0.4375-1.7344 0.59375-3.4922 0.99609-6.6523 1.4961-9.5039 1.4961-4.5078 0-8.2383-1.25-11.277-3.7617l-16-15.242c-4.0156-4.2656-6.1484-9.8047-6.543-16.945l-1.293-23.664c-0.10938-1.9805 0.027344-3.6992 0.41797-5.25 0.58594-2.3281 1.6289-4.543 3.1016-6.5781 2.3594-3.2578 5.9531-5.7266 10.129-6.9453l23.18-6.7734c1.3555-0.39844 2.7344-0.64844 4.1016-0.75 5.2031-0.37891 10.328 0.37109 15.23 2.2305 0.92578 0.35156 1.8867 0.83594 2.9414 1.4766l12.48 7.6328c0.71484 0.4375 1.332 0.86328 1.8828 1.3047 6.2969 5.0117 9.3945 10.223 9.2109 15.48zm-1-0.023438c0.17578-5.0078-2.7148-9.8008-8.8281-14.672-0.51953-0.41406-1.1016-0.81641-1.7812-1.2305l-12.48-7.6328c-1-0.60938-1.9062-1.0703-2.7734-1.3984-4.7695-1.8086-9.7539-2.5391-14.809-2.168-1.293 0.09375-2.6016 0.33203-3.8906 0.71094l-23.18 6.7734c-3.9609 1.1562-7.3672 3.4922-9.5977 6.5703-1.3984 1.9375-2.3906 4.0352-2.9453 6.2383-0.36719 1.4531-0.49219 3.0742-0.39062 4.9531l1.293 23.664c0.38281 6.8945 2.4258 12.223 6.2539 16.293l15.949 15.203c4.6641 3.8516 11.164 4.5273 19.844 2.0508 0.50781-0.14844 1.0469-0.32812 1.6484-0.5625l24.836-9.6875c2.5039-0.97656 4.5859-2.3086 6.1836-3.9609 2.5469-2.6328 3.9766-5.8438 4.2422-9.5508z" />
</svg>