<svg xmlns="http://www.w3.org/2000/svg" version="1.1" viewBox="-5.0 -10.0 110.0 135.0" width="110" height="135"
    fill="#db0042">
    <path
        d="m64 26.25c-0.042969-0.22656-0.23828-0.39062-0.46875-0.39062h-41.871c-0.14062 0-0.27344 0.0625-0.35938 0.17188-0.089843 0.10156-0.13281 0.24219-0.10938 0.37891l5.6602 33.672v-0.003906c0.039063 0.23047 0.23828 0.39453 0.46875 0.39062h41.891c0.13672 0 0.26562-0.054688 0.35937-0.16016 0.089844-0.10547 0.12891-0.24219 0.10938-0.37891zm-36.289 33.281-5.3711-32h40l5.3711 32z" />
    <path
        d="m43.68 68.059c0.050781-0.21484-0.058594-0.43359-0.25781-0.52734l-2.8203-1.3008c-0.066406-0.015625-0.13672-0.015625-0.20312 0h-7.7969c-0.21875 0.003906-0.40234 0.15625-0.44922 0.36719-0.046875 0.21094 0.054687 0.42578 0.24609 0.52344l2.8203 1.3008c0.0625 0.03125 0.13281 0.046875 0.20312 0.046875h7.8086c0.23047-0.003906 0.42578-0.17969 0.44922-0.41016z" />
    <path
        d="m83.781 70.762-2.7812-1.3008c-0.0625-0.015626-0.12891-0.015626-0.19141 0h-41.168c-0.22266 0-0.41406 0.15234-0.46094 0.36719-0.046876 0.21484 0.0625 0.43359 0.26172 0.52344l2.8203 1.3008v-0.003906c0.0625 0.015624 0.13281 0.015624 0.19922 0h41.117c0.22656 0.007812 0.42188-0.14844 0.47266-0.36719 0.046875-0.21875-0.066406-0.44141-0.26953-0.53125z" />
    <path
        d="m43.449 67.078 2.8203 1.3008c0.0625 0.03125 0.13281 0.050782 0.19922 0.050782h7.8125c0.21875-0.003907 0.41016-0.15625 0.45703-0.37109 0.050781-0.21484-0.058593-0.43359-0.25781-0.52734l-2.8281-1.3008h-0.003906c-0.0625-0.015625-0.125-0.015625-0.1875 0h-7.8125c-0.21875 0-0.41016 0.15234-0.45703 0.37109-0.03125 0.19922 0.074219 0.39453 0.25781 0.47656z" />
    <path
        d="m54.512 67.078 2.8203 1.3008h-0.003906c0.0625 0.03125 0.125 0.046875 0.19141 0.050782h7.8086c0.22266-0.003907 0.41016-0.15625 0.46094-0.37109 0.050782-0.21484-0.058593-0.43359-0.25781-0.52734l-2.8203-1.3008c-0.066407-0.015625-0.13672-0.015625-0.19922 0h-7.8125c-0.21875 0-0.41406 0.15234-0.46094 0.37109-0.019531 0.19922 0.089844 0.39063 0.27344 0.47656z" />
    <path
        d="m65.559 67.078 2.8203 1.3008c0.0625 0.03125 0.13281 0.050782 0.19922 0.050782h7.8125c0.22266 0 0.41406-0.15625 0.46094-0.37109 0.042969-0.21875-0.066406-0.4375-0.27344-0.52734l-2.8203-1.3008h0.003907c-0.0625-0.015625-0.12891-0.015625-0.19141 0h-7.8086c-0.21875 0.003906-0.40234 0.15625-0.44922 0.36719-0.046875 0.21094 0.054688 0.42578 0.24609 0.52344z" />
    <path
        d="m93.73 72.27c-0.19141-0.49219-0.54297-0.90234-1-1.168-0.078125-0.0625-0.16797-0.11328-0.26172-0.15234l-16.609-7.668-6.6875-39.75c-0.18359-1.1562-1.1836-2.0039-2.3516-2h-49.32l-10.211 0.39844c-1.2812 0.050781-2.2969 1.1055-2.2891 2.3906v51.758c0.003906 1.3125 1.0664 2.375 2.3789 2.3828h85.242c0.78125 0 1.5117-0.38281 1.957-1.0273 0.44531-0.64062 0.54688-1.4609 0.27344-2.1953zm-75.582-47.879h48.273l6.7383 40.059h-48.281zm23.332 47.848-14.852-6.8477h47l15.738 7.2617h-47zm2.2305 3.3711-0.76172-2h48.223l0.76953 2z" />
</svg>